<svg width="256" height="256" viewBox="0 0 256 256" fill="none" xmlns="http://www.w3.org/2000/svg">
  <defs>
    <linearGradient id="bg" x1="44" y1="34" x2="207" y2="212" gradientUnits="userSpaceOnUse">
      <stop stop-color="#FFF9F1"/>
      <stop offset="1" stop-color="#E8DCCB"/>
    </linearGradient>
    <linearGradient id="ring" x1="65" y1="58" x2="196" y2="189" gradientUnits="userSpaceOnUse">
      <stop stop-color="#D99A76"/>
      <stop offset="1" stop-color="#B96A48"/>
    </linearGradient>
    <filter id="shadow" x="64" y="46" width="128" height="168" filterUnits="userSpaceOnUse" color-interpolation-filters="sRGB">
      <feFlood flood-opacity="0" result="BackgroundImageFix"/>
      <feColorMatrix in="SourceAlpha" type="matrix" values="0 0 0 0 0 0 0 0 0 0 0 0 0 0 0 0 0 0 127 0" result="hardAlpha"/>
      <feOffset dy="6"/>
      <feGaussianBlur stdDeviation="8"/>
      <feComposite in2="hardAlpha" operator="out"/>
      <feColorMatrix type="matrix" values="0 0 0 0 0.14902 0 0 0 0 0.223529 0 0 0 0 0.290196 0 0 0 0.18 0"/>
      <feBlend mode="normal" in2="BackgroundImageFix" result="effect1_dropShadow_1_1"/>
      <feBlend mode="normal" in="SourceGraphic" in2="effect1_dropShadow_1_1" result="shape"/>
    </filter>
  </defs>

  <circle cx="128" cy="128" r="110" fill="url(#bg)"/>
  <circle cx="128" cy="128" r="96" stroke="url(#ring)" stroke-width="10"/>

  <g filter="url(#shadow)">
    <rect x="86" y="58" width="84" height="124" rx="29" fill="#2B3C4E"/>
    <path d="M146 58V84C146 90.6274 151.373 96 158 96H170" fill="#44586B"/>
    <path d="M146 58V84C146 90.6274 151.373 96 158 96H170" stroke="#44586B" stroke-width="3"/>
  </g>

  <path d="M103 123C108 117.167 113 117.167 118 123C123 128.833 128 128.833 133 123C138 117.167 143 117.167 148 123" stroke="#F0C9B1" stroke-width="9" stroke-linecap="round"/>
  <path d="M104 148H149" stroke="#7E90A0" stroke-width="9" stroke-linecap="round"/>
</svg>
